<svg width="960" height="320" viewBox="0 0 960 320" fill="none" xmlns="http://www.w3.org/2000/svg" role="img" aria-labelledby="title desc">
  <title id="title">Qorvexus logo</title>
  <desc id="desc">A layered geometric Q mark with orbital arcs beside the Qorvexus wordmark.</desc>
  <defs>
    <linearGradient id="bg" x1="44" y1="36" x2="276" y2="284" gradientUnits="userSpaceOnUse">
      <stop stop-color="#0F9D7A"/>
      <stop offset="1" stop-color="#1454D9"/>
    </linearGradient>
    <linearGradient id="ring" x1="86" y1="70" x2="244" y2="244" gradientUnits="userSpaceOnUse">
      <stop stop-color="#F6F4EA"/>
      <stop offset="1" stop-color="#D9F3ED"/>
    </linearGradient>
    <linearGradient id="tail" x1="174" y1="166" x2="255" y2="252" gradientUnits="userSpaceOnUse">
      <stop stop-color="#FFB14D"/>
      <stop offset="1" stop-color="#FF6A3D"/>
    </linearGradient>
    <filter id="shadow" x="0" y="0" width="320" height="320" filterUnits="userSpaceOnUse" color-interpolation-filters="sRGB">
      <feFlood flood-opacity="0" result="BackgroundImageFix"/>
      <feColorMatrix in="SourceAlpha" type="matrix" values="0 0 0 0 0 0 0 0 0 0 0 0 0 0 0 0 0 0 127 0" result="hardAlpha"/>
      <feOffset dy="12"/>
      <feGaussianBlur stdDeviation="18"/>
      <feComposite in2="hardAlpha" operator="out"/>
      <feColorMatrix type="matrix" values="0 0 0 0 0.0392157 0 0 0 0 0.152941 0 0 0 0 0.305882 0 0 0 0.22 0"/>
      <feBlend mode="normal" in2="BackgroundImageFix" result="effect1_dropShadow_1_1"/>
      <feBlend mode="normal" in="SourceGraphic" in2="effect1_dropShadow_1_1" result="shape"/>
    </filter>
  </defs>

  <g filter="url(#shadow)">
    <rect x="44" y="36" width="232" height="232" rx="54" fill="url(#bg)"/>
    <path d="M160 80C117.072 80 82 115.072 82 158C82 200.928 117.072 236 160 236C179.173 236 196.725 229.002 210.227 217.426L234.793 242L251 225.793L226.782 201.575C235.144 189.78 240 175.375 240 160C240 115.817 204.183 80 160 80Z" fill="url(#ring)"/>
    <circle cx="160" cy="158" r="44" fill="#1454D9" fill-opacity="0.18" stroke="#F6F4EA" stroke-width="18"/>
    <path d="M195.158 191.52L247.487 243.85" stroke="url(#tail)" stroke-width="24" stroke-linecap="round"/>
    <path d="M103 124C116.687 97.543 144.327 79.5 176.182 79.5C208.516 79.5 236.52 98.0897 250 125.225" stroke="#C7FFF1" stroke-opacity="0.78" stroke-width="8" stroke-linecap="round"/>
    <path d="M85.5 173.5C89.9103 214.706 124.858 246.75 167.25 246.75C184.843 246.75 201.207 241.235 214.646 231.842" stroke="#83D7FF" stroke-opacity="0.82" stroke-width="8" stroke-linecap="round"/>
  </g>

  <g fill="#0F172A">
    <path d="M382.84 211.96C363.88 211.96 348.453 205.693 336.56 193.16C324.88 180.627 319.04 164.667 319.04 145.28C319.04 125.68 324.987 109.72 336.88 97.4C348.773 84.8667 364.2 78.6 383.16 78.6C402.12 78.6 417.547 84.8667 429.44 97.4C441.333 109.72 447.28 125.68 447.28 145.28C447.28 164.453 441.547 180.307 430.08 192.84L449.2 211.96H420.88L409 200.08C401.707 208 393.12 211.96 383.24 211.96H382.84ZM383.16 182.92C392.187 182.92 399.587 179.92 405.36 173.92L387.04 155.6H415.04L425.36 165.92C428.027 159.707 429.36 152.827 429.36 145.28C429.36 131.947 425.2 121.107 416.88 112.76C408.773 104.2 397.533 99.92 383.16 99.92C369 99.92 357.653 104.2 349.12 112.76C340.8 121.107 336.64 131.947 336.64 145.28C336.64 158.613 340.8 169.56 349.12 178.12C357.653 186.653 369 190.92 383.16 190.92V182.92Z"/>
    <path d="M498.509 212.12C486.083 212.12 475.563 208.067 466.949 199.96C458.336 191.64 454.029 181.04 454.029 168.16C454.029 155.28 458.336 144.787 466.949 136.68C475.563 128.36 486.083 124.2 498.509 124.2C510.936 124.2 521.456 128.36 530.069 136.68C538.683 144.787 542.989 155.28 542.989 168.16C542.989 181.04 538.683 191.64 530.069 199.96C521.456 208.067 510.936 212.12 498.509 212.12ZM498.509 194.6C505.536 194.6 511.469 192.12 516.309 187.16C521.149 181.987 523.569 175.653 523.569 168.16C523.569 160.667 521.149 154.44 516.309 149.48C511.469 144.307 505.536 141.72 498.509 141.72C491.483 141.72 485.549 144.307 480.709 149.48C475.869 154.44 473.449 160.667 473.449 168.16C473.449 175.653 475.869 181.987 480.709 187.16C485.549 192.12 491.483 194.6 498.509 194.6Z"/>
    <path d="M558.124 248.92V126.76H576.284V136.52C582.711 128.307 591.537 124.2 602.764 124.2C614.551 124.2 624.484 128.307 632.564 136.52C640.644 144.52 644.684 155.067 644.684 168.16C644.684 181.253 640.644 191.907 632.564 200.12C624.484 208.12 614.551 212.12 602.764 212.12C591.964 212.12 583.137 208.227 576.284 200.44V248.92H558.124ZM599.564 194.6C606.591 194.6 612.417 192.12 617.044 187.16C621.884 182.2 624.304 175.867 624.304 168.16C624.304 160.453 621.884 154.12 617.044 149.16C612.417 144.2 606.591 141.72 599.564 141.72C592.537 141.72 586.604 144.2 581.764 149.16C577.137 154.12 574.824 160.453 574.824 168.16C574.824 175.867 577.137 182.2 581.764 187.16C586.604 192.12 592.537 194.6 599.564 194.6Z"/>
    <path d="M656.355 210V126.76H674.515V136.36C680.728 128.253 689.341 124.2 700.355 124.2C710.021 124.2 717.901 126.947 723.995 132.44C730.101 137.72 733.155 145.107 733.155 154.6V210H714.995V160.68C714.995 154.467 713.275 149.64 709.835 146.2C706.408 142.76 701.941 141.04 696.435 141.04C690.435 141.04 685.595 142.92 681.915 146.68C678.248 150.227 676.355 154.907 676.355 160.72V210H656.355Z"/>
    <path d="M788.431 212.12C775.978 212.12 765.351 208.013 756.551 199.8C747.751 191.587 743.351 181.04 743.351 168.16C743.351 155.28 747.605 144.733 756.111 136.52C764.631 128.307 775.018 124.2 787.271 124.2C799.258 124.2 809.085 128.253 816.751 136.36C824.431 144.253 828.271 154.733 828.271 167.8C828.271 170.2 828.111 172.253 827.791 173.96H762.611C763.891 180.173 766.858 185.013 771.511 188.48C776.165 191.733 781.525 193.36 787.591 193.36C796.658 193.36 803.538 189.973 808.231 183.2L824.751 192.52C817.071 205.587 804.965 212.12 788.431 212.12ZM762.291 158.04H809.791C808.631 151.467 805.985 146.533 801.851 143.24C797.718 139.947 792.738 138.28 786.911 138.24C780.365 138.24 774.898 140.067 770.511 143.72C766.125 147.16 763.385 151.933 762.291 158.04Z"/>
    <path d="M841.781 210V126.76H860.421V138.28C864.514 129.52 872.421 125.14 884.141 125.14V144.88C877.501 144.4 871.621 145.92 866.501 149.44C861.594 152.96 859.141 158.907 859.141 167.28V210H841.781Z"/>
    <path d="M927.14 212.12C914.687 212.12 904.06 208.013 895.26 199.8C886.46 191.587 882.06 181.04 882.06 168.16C882.06 155.28 886.314 144.733 894.82 136.52C903.34 128.307 913.727 124.2 925.98 124.2C937.967 124.2 947.794 128.253 955.46 136.36C963.14 144.253 966.98 154.733 966.98 167.8C966.98 170.2 966.82 172.253 966.5 173.96H901.32C902.6 180.173 905.567 185.013 910.22 188.48C914.874 191.733 920.234 193.36 926.3 193.36C935.367 193.36 942.247 189.973 946.94 183.2L963.46 192.52C955.78 205.587 943.674 212.12 927.14 212.12ZM900.999 158.04H948.5C947.34 151.467 944.694 146.533 940.56 143.24C936.427 139.947 931.447 138.28 925.62 138.24C919.074 138.24 913.607 140.067 909.22 143.72C904.834 147.16 902.094 151.933 900.999 158.04Z"/>
  </g>
</svg>
