<svg width="960" height="320" viewBox="0 0 960 320" fill="none" xmlns="http://www.w3.org/2000/svg" role="img" aria-labelledby="title desc">
  <title id="title">Qorvexus logo</title>
  <desc id="desc">A layered geometric Q mark beside a clear Qorvexus wordmark.</desc>
  <defs>
    <linearGradient id="bg" x1="44" y1="36" x2="276" y2="284" gradientUnits="userSpaceOnUse">
      <stop stop-color="#0F9D7A"/>
      <stop offset="1" stop-color="#1454D9"/>
    </linearGradient>
    <linearGradient id="ring" x1="86" y1="70" x2="244" y2="244" gradientUnits="userSpaceOnUse">
      <stop stop-color="#F6F4EA"/>
      <stop offset="1" stop-color="#D9F3ED"/>
    </linearGradient>
    <linearGradient id="tail" x1="174" y1="166" x2="255" y2="252" gradientUnits="userSpaceOnUse">
      <stop stop-color="#FFB14D"/>
      <stop offset="1" stop-color="#FF6A3D"/>
    </linearGradient>
    <filter id="shadow" x="0" y="0" width="320" height="320" filterUnits="userSpaceOnUse" color-interpolation-filters="sRGB">
      <feFlood flood-opacity="0" result="BackgroundImageFix"/>
      <feColorMatrix in="SourceAlpha" type="matrix" values="0 0 0 0 0 0 0 0 0 0 0 0 0 0 0 0 0 0 127 0" result="hardAlpha"/>
      <feOffset dy="12"/>
      <feGaussianBlur stdDeviation="18"/>
      <feComposite in2="hardAlpha" operator="out"/>
      <feColorMatrix type="matrix" values="0 0 0 0 0.0392157 0 0 0 0 0.152941 0 0 0 0 0.305882 0 0 0 0.22 0"/>
      <feBlend mode="normal" in2="BackgroundImageFix" result="effect1_dropShadow_1_1"/>
      <feBlend mode="normal" in="SourceGraphic" in2="effect1_dropShadow_1_1" result="shape"/>
    </filter>
  </defs>

  <g filter="url(#shadow)">
    <rect x="44" y="36" width="232" height="232" rx="54" fill="url(#bg)"/>
    <path d="M160 80C117.072 80 82 115.072 82 158C82 200.928 117.072 236 160 236C179.173 236 196.725 229.002 210.227 217.426L234.793 242L251 225.793L226.782 201.575C235.144 189.78 240 175.375 240 160C240 115.817 204.183 80 160 80Z" fill="url(#ring)"/>
    <circle cx="160" cy="158" r="44" fill="#1454D9" fill-opacity="0.18" stroke="#F6F4EA" stroke-width="18"/>
    <path d="M195.158 191.52L247.487 243.85" stroke="url(#tail)" stroke-width="24" stroke-linecap="round"/>
    <path d="M103 124C116.687 97.543 144.327 79.5 176.182 79.5C208.516 79.5 236.52 98.0897 250 125.225" stroke="#C7FFF1" stroke-opacity="0.78" stroke-width="8" stroke-linecap="round"/>
    <path d="M85.5 173.5C89.9103 214.706 124.858 246.75 167.25 246.75C184.843 246.75 201.207 241.235 214.646 231.842" stroke="#83D7FF" stroke-opacity="0.82" stroke-width="8" stroke-linecap="round"/>
  </g>

  <g>
    <text x="324" y="178" fill="#0F172A" font-family="'Avenir Next', 'Segoe UI', 'Helvetica Neue', Arial, sans-serif" font-size="88" font-weight="800" letter-spacing="1.5">Qorvexus</text>
    <text x="328" y="224" fill="#2F6B61" font-family="'Avenir Next', 'Segoe UI', 'Helvetica Neue', Arial, sans-serif" font-size="24" font-weight="600" letter-spacing="5">AUTONOMOUS AGENT PLATFORM</text>
  </g>
</svg>
